<?xml version="1.0" encoding="UTF-8"?>
<svg xmlns="http://www.w3.org/2000/svg" xmlns:xlink="http://www.w3.org/1999/xlink" width="56px" height="56px" viewBox="0 0 56 56" version="1.1">
<g id="surface1">
<path style="fill:none;stroke-width:1;stroke-linecap:round;stroke-linejoin:round;stroke:rgb(100%,71.372549%,0%);stroke-opacity:1;stroke-miterlimit:4;" d="M 31.027902 30.529018 L 16.610491 5.501116 L 12.639509 7.851562 L 11.584821 9.80692 L 13.737723 10.356027 L 12.683036 12.311384 L 14.839286 12.863839 L 13.784598 14.819196 L 15.9375 15.368304 L 14.882812 17.323661 L 17.035714 17.872768 L 15.981027 19.831473 L 18.133929 20.38058 L 17.079241 22.335938 L 19.232143 22.885045 L 18.177455 24.84375 L 20.330357 25.392857 L 19.27567 27.348214 L 21.43192 27.90067 L 20.377232 29.856027 L 22.530134 30.405134 L 21.475446 32.360491 L 23.628348 32.909598 L 22.573661 34.868304 L 23.94308 36.502232 " transform="matrix(1.166667,0,0,1.166667,0,0)"/>
<path style="fill:none;stroke-width:1;stroke-linecap:round;stroke-linejoin:round;stroke:rgb(100%,71.372549%,0%);stroke-opacity:1;stroke-miterlimit:4;" d="M 23.94308 36.502232 L 27.107143 31.543527 C 27.324777 31.198661 27.686384 30.967634 28.091518 30.917411 L 31.888393 30.415179 C 32.414062 30.344866 32.926339 30.595982 33.197545 31.051339 L 36.321429 36.334821 C 36.512277 36.659598 36.405134 37.081473 36.080357 37.27567 L 35.665179 37.520089 C 35.337054 37.710938 34.918527 37.603795 34.72433 37.279018 L 34.379464 36.69308 L 27.736607 40.620536 L 28.084821 41.206473 C 28.27567 41.534598 28.168527 41.953125 27.840402 42.147321 L 27.408482 42.405134 C 27.083705 42.595982 26.66183 42.488839 26.467634 42.164062 L 23.919643 37.851562 C 23.671875 37.433036 23.678571 36.910714 23.94308 36.502232 " transform="matrix(1.166667,0,0,1.166667,0,0)"/>
<path style="fill:none;stroke-width:1;stroke-linecap:round;stroke-linejoin:round;stroke:rgb(100%,71.372549%,0%);stroke-opacity:1;stroke-miterlimit:4;" d="M 33.090402 34.513393 L 32.427455 33.388393 L 26.350446 36.984375 L 27.016741 38.109375 " transform="matrix(1.166667,0,0,1.166667,0,0)"/>
</g>
</svg>
